<?xml version="1.0" encoding="UTF-8"?><svg id="Layer_1" xmlns="http://www.w3.org/2000/svg" xmlns:xlink="http://www.w3.org/1999/xlink" viewBox="0 0 200 42"><defs><style>.cls-1{fill:url(#linear-gradient);}.cls-1,.cls-2,.cls-3,.cls-4,.cls-5,.cls-6,.cls-7,.cls-8,.cls-9,.cls-10,.cls-11,.cls-12,.cls-13,.cls-14,.cls-15,.cls-16,.cls-17,.cls-18,.cls-19,.cls-20,.cls-21,.cls-22,.cls-23,.cls-24,.cls-25,.cls-26,.cls-27,.cls-28,.cls-29,.cls-30,.cls-31,.cls-32,.cls-33,.cls-34,.cls-35,.cls-36,.cls-37,.cls-38,.cls-39,.cls-40,.cls-41,.cls-42,.cls-43,.cls-44,.cls-45{stroke-width:0px;}.cls-2{fill:url(#linear-gradient-38);}.cls-3{fill:url(#linear-gradient-33);}.cls-4{fill:url(#linear-gradient-29);}.cls-5{fill:url(#linear-gradient-32);}.cls-6{fill:url(#linear-gradient-30);}.cls-7{fill:url(#linear-gradient-31);}.cls-8{fill:url(#linear-gradient-36);}.cls-9{fill:url(#linear-gradient-39);}.cls-10{fill:url(#linear-gradient-34);}.cls-11{fill:url(#linear-gradient-37);}.cls-12{fill:url(#linear-gradient-35);}.cls-13{fill:url(#linear-gradient-28);}.cls-14{fill:url(#linear-gradient-25);}.cls-15{fill:url(#linear-gradient-11);}.cls-16{fill:url(#linear-gradient-12);}.cls-17{fill:url(#linear-gradient-13);}.cls-18{fill:url(#linear-gradient-10);}.cls-19{fill:url(#linear-gradient-17);}.cls-20{fill:url(#linear-gradient-16);}.cls-21{fill:url(#linear-gradient-19);}.cls-22{fill:url(#linear-gradient-15);}.cls-23{fill:url(#linear-gradient-23);}.cls-24{fill:url(#linear-gradient-21);}.cls-25{fill:url(#linear-gradient-18);}.cls-26{fill:url(#linear-gradient-14);}.cls-27{fill:url(#linear-gradient-22);}.cls-28{fill:url(#linear-gradient-20);}.cls-29{fill:url(#linear-gradient-27);}.cls-30{fill:url(#linear-gradient-24);}.cls-31{fill:url(#linear-gradient-26);}.cls-32{fill:url(#linear-gradient-42);}.cls-33{fill:url(#linear-gradient-40);}.cls-34{fill:url(#linear-gradient-41);}.cls-35,.cls-44{fill:#fff;}.cls-35,.cls-45{fill-rule:evenodd;}.cls-36{fill:url(#linear-gradient-4);}.cls-37{fill:url(#linear-gradient-2);}.cls-38{fill:url(#linear-gradient-3);}.cls-39{fill:url(#linear-gradient-8);}.cls-40{fill:url(#linear-gradient-9);}.cls-41{fill:url(#linear-gradient-7);}.cls-42{fill:url(#linear-gradient-5);}.cls-43{fill:url(#linear-gradient-6);}</style><linearGradient id="linear-gradient" x1="159.92" y1="52.8" x2="159.92" y2="50.03" gradientTransform="translate(0 72) scale(1 -1)" gradientUnits="userSpaceOnUse"><stop offset="0" stop-color="#95ffff"/><stop offset=".14" stop-color="#70eaef"/><stop offset=".44" stop-color="#15b6c8"/><stop offset=".5" stop-color="#00aac0"/><stop offset=".62" stop-color="#00b3bc"/><stop offset=".82" stop-color="#00ccb2"/><stop offset=".94" stop-color="#00dfab"/></linearGradient><linearGradient id="linear-gradient-2" x1="163.85" y1="47.94" x2="163.85" y2="45.55" gradientTransform="translate(0 72) scale(1 -1)" gradientUnits="userSpaceOnUse"><stop offset="0" stop-color="#95ffff"/><stop offset=".14" stop-color="#70eaef"/><stop offset=".44" stop-color="#15b6c8"/><stop offset=".5" stop-color="#00aac0"/><stop offset=".62" stop-color="#00b3bc"/><stop offset=".82" stop-color="#00ccb2"/><stop offset=".94" stop-color="#00dfab"/></linearGradient><linearGradient id="linear-gradient-3" x1="156.44" y1="51.29" x2="156.44" y2="48.52" gradientTransform="translate(0 72) scale(1 -1)" gradientUnits="userSpaceOnUse"><stop offset="0" stop-color="#95ffff"/><stop offset=".14" stop-color="#70eaef"/><stop offset=".44" stop-color="#15b6c8"/><stop offset=".5" stop-color="#00aac0"/><stop offset=".62" stop-color="#00b3bc"/><stop offset=".82" stop-color="#00ccb2"/><stop offset=".94" stop-color="#00dfab"/></linearGradient><linearGradient id="linear-gradient-4" x1="163.85" y1="50.75" x2="163.85" y2="48.54" gradientTransform="translate(0 72) scale(1 -1)" gradientUnits="userSpaceOnUse"><stop offset="0" stop-color="#95ffff"/><stop offset=".14" stop-color="#70eaef"/><stop offset=".44" stop-color="#15b6c8"/><stop offset=".5" stop-color="#00aac0"/><stop offset=".62" stop-color="#00b3bc"/><stop offset=".82" stop-color="#00ccb2"/><stop offset=".94" stop-color="#00dfab"/></linearGradient><linearGradient id="linear-gradient-5" x1="159.89" y1="54.01" x2="159.89" y2="51.77" gradientTransform="translate(0 72) scale(1 -1)" gradientUnits="userSpaceOnUse"><stop offset="0" stop-color="#95ffff"/><stop offset=".14" stop-color="#70eaef"/><stop offset=".44" stop-color="#15b6c8"/><stop offset=".5" stop-color="#00aac0"/><stop offset=".62" stop-color="#00b3bc"/><stop offset=".82" stop-color="#00ccb2"/><stop offset=".94" stop-color="#00dfab"/></linearGradient><linearGradient id="linear-gradient-6" x1="163.84" y1="49.31" x2="163.84" y2="47.14" gradientTransform="translate(0 72) scale(1 -1)" gradientUnits="userSpaceOnUse"><stop offset="0" stop-color="#95ffff"/><stop offset=".14" stop-color="#70eaef"/><stop offset=".44" stop-color="#15b6c8"/><stop offset=".5" stop-color="#00aac0"/><stop offset=".62" stop-color="#00b3bc"/><stop offset=".82" stop-color="#00ccb2"/><stop offset=".94" stop-color="#00dfab"/></linearGradient><linearGradient id="linear-gradient-7" x1="155.98" y1="47.34" x2="155.98" y2="43.5" gradientTransform="translate(0 72) scale(1 -1)" gradientUnits="userSpaceOnUse"><stop offset="0" stop-color="#95ffff"/><stop offset=".14" stop-color="#70eaef"/><stop offset=".44" stop-color="#15b6c8"/><stop offset=".5" stop-color="#00aac0"/><stop offset=".62" stop-color="#00b3bc"/><stop offset=".82" stop-color="#00ccb2"/><stop offset=".94" stop-color="#00dfab"/></linearGradient><linearGradient id="linear-gradient-8" x1="159.9" y1="66.39" x2="159.9" y2="52.67" gradientTransform="translate(0 72) scale(1 -1)" gradientUnits="userSpaceOnUse"><stop offset="0" stop-color="#95ffff"/><stop offset=".14" stop-color="#70eaef"/><stop offset=".44" stop-color="#15b6c8"/><stop offset=".5" stop-color="#00aac0"/><stop offset=".62" stop-color="#00b3bc"/><stop offset=".82" stop-color="#00ccb2"/><stop offset=".94" stop-color="#00dfab"/></linearGradient><linearGradient id="linear-gradient-9" x1="155.98" y1="45.71" x2="155.98" y2="42.48" gradientTransform="translate(0 72) scale(1 -1)" gradientUnits="userSpaceOnUse"><stop offset="0" stop-color="#95ffff"/><stop offset=".14" stop-color="#70eaef"/><stop offset=".44" stop-color="#15b6c8"/><stop offset=".5" stop-color="#00aac0"/><stop offset=".62" stop-color="#00b3bc"/><stop offset=".82" stop-color="#00ccb2"/><stop offset=".94" stop-color="#00dfab"/></linearGradient><linearGradient id="linear-gradient-10" x1="155.97" y1="49.94" x2="155.97" y2="47.12" gradientTransform="translate(0 72) scale(1 -1)" gradientUnits="userSpaceOnUse"><stop offset="0" stop-color="#95ffff"/><stop offset=".14" stop-color="#70eaef"/><stop offset=".44" stop-color="#15b6c8"/><stop offset=".5" stop-color="#00aac0"/><stop offset=".62" stop-color="#00b3bc"/><stop offset=".82" stop-color="#00ccb2"/><stop offset=".94" stop-color="#00dfab"/></linearGradient><linearGradient id="linear-gradient-11" x1="163.85" y1="44.7" x2="163.85" y2="42.54" gradientTransform="translate(0 72) scale(1 -1)" gradientUnits="userSpaceOnUse"><stop offset="0" stop-color="#95ffff"/><stop offset=".14" stop-color="#70eaef"/><stop offset=".44" stop-color="#15b6c8"/><stop offset=".5" stop-color="#00aac0"/><stop offset=".62" stop-color="#00b3bc"/><stop offset=".82" stop-color="#00ccb2"/><stop offset=".94" stop-color="#00dfab"/></linearGradient><linearGradient id="linear-gradient-12" x1="155.98" y1="48.67" x2="155.98" y2="45.51" gradientTransform="translate(0 72) scale(1 -1)" gradientUnits="userSpaceOnUse"><stop offset="0" stop-color="#95ffff"/><stop offset=".14" stop-color="#70eaef"/><stop offset=".44" stop-color="#15b6c8"/><stop offset=".5" stop-color="#00aac0"/><stop offset=".62" stop-color="#00b3bc"/><stop offset=".82" stop-color="#00ccb2"/><stop offset=".94" stop-color="#00dfab"/></linearGradient><linearGradient id="linear-gradient-13" x1="163.85" y1="46.52" x2="163.85" y2="43.54" gradientTransform="translate(0 72) scale(1 -1)" gradientUnits="userSpaceOnUse"><stop offset="0" stop-color="#95ffff"/><stop offset=".14" stop-color="#70eaef"/><stop offset=".44" stop-color="#15b6c8"/><stop offset=".5" stop-color="#00aac0"/><stop offset=".62" stop-color="#00b3bc"/><stop offset=".82" stop-color="#00ccb2"/><stop offset=".94" stop-color="#00dfab"/></linearGradient><linearGradient id="linear-gradient-14" x1="184.91" y1="52.44" x2="184.91" y2="50.05" gradientTransform="translate(0 72) scale(1 -1)" gradientUnits="userSpaceOnUse"><stop offset="0" stop-color="#95ffff"/><stop offset=".14" stop-color="#70eaef"/><stop offset=".44" stop-color="#15b6c8"/><stop offset=".5" stop-color="#00aac0"/><stop offset=".62" stop-color="#00b3bc"/><stop offset=".82" stop-color="#00ccb2"/><stop offset=".94" stop-color="#00dfab"/></linearGradient><linearGradient id="linear-gradient-15" x1="184.91" y1="48.09" x2="184.91" y2="45.54" gradientTransform="translate(0 72) scale(1 -1)" gradientUnits="userSpaceOnUse"><stop offset="0" stop-color="#95ffff"/><stop offset=".14" stop-color="#70eaef"/><stop offset=".44" stop-color="#15b6c8"/><stop offset=".5" stop-color="#00aac0"/><stop offset=".62" stop-color="#00b3bc"/><stop offset=".82" stop-color="#00ccb2"/><stop offset=".94" stop-color="#00dfab"/></linearGradient><linearGradient id="linear-gradient-16" x1="184.91" y1="50.86" x2="184.91" y2="48.54" gradientTransform="translate(0 72) scale(1 -1)" gradientUnits="userSpaceOnUse"><stop offset="0" stop-color="#95ffff"/><stop offset=".14" stop-color="#70eaef"/><stop offset=".44" stop-color="#15b6c8"/><stop offset=".5" stop-color="#00aac0"/><stop offset=".62" stop-color="#00b3bc"/><stop offset=".82" stop-color="#00ccb2"/><stop offset=".94" stop-color="#00dfab"/></linearGradient><linearGradient id="linear-gradient-17" x1="184.91" y1="49.44" x2="184.91" y2="47.14" gradientTransform="translate(0 72) scale(1 -1)" gradientUnits="userSpaceOnUse"><stop offset="0" stop-color="#95ffff"/><stop offset=".14" stop-color="#70eaef"/><stop offset=".44" stop-color="#15b6c8"/><stop offset=".5" stop-color="#00aac0"/><stop offset=".62" stop-color="#00b3bc"/><stop offset=".82" stop-color="#00ccb2"/><stop offset=".94" stop-color="#00dfab"/></linearGradient><linearGradient id="linear-gradient-18" x1="184.91" y1="66.39" x2="184.91" y2="52.67" gradientTransform="translate(0 72) scale(1 -1)" gradientUnits="userSpaceOnUse"><stop offset="0" stop-color="#95ffff"/><stop offset=".14" stop-color="#70eaef"/><stop offset=".44" stop-color="#15b6c8"/><stop offset=".5" stop-color="#00aac0"/><stop offset=".62" stop-color="#00b3bc"/><stop offset=".82" stop-color="#00ccb2"/><stop offset=".94" stop-color="#00dfab"/></linearGradient><linearGradient id="linear-gradient-19" x1="184.91" y1="44.9" x2="184.91" y2="42.53" gradientTransform="translate(0 72) scale(1 -1)" gradientUnits="userSpaceOnUse"><stop offset="0" stop-color="#95ffff"/><stop offset=".14" stop-color="#70eaef"/><stop offset=".44" stop-color="#15b6c8"/><stop offset=".5" stop-color="#00aac0"/><stop offset=".62" stop-color="#00b3bc"/><stop offset=".82" stop-color="#00ccb2"/><stop offset=".94" stop-color="#00dfab"/></linearGradient><linearGradient id="linear-gradient-20" x1="184.91" y1="53.77" x2="184.91" y2="51.79" gradientTransform="translate(0 72) scale(1 -1)" gradientUnits="userSpaceOnUse"><stop offset="0" stop-color="#95ffff"/><stop offset=".14" stop-color="#70eaef"/><stop offset=".44" stop-color="#15b6c8"/><stop offset=".5" stop-color="#00aac0"/><stop offset=".62" stop-color="#00b3bc"/><stop offset=".82" stop-color="#00ccb2"/><stop offset=".94" stop-color="#00dfab"/></linearGradient><linearGradient id="linear-gradient-21" x1="184.91" y1="46.69" x2="184.91" y2="43.53" gradientTransform="translate(0 72) scale(1 -1)" gradientUnits="userSpaceOnUse"><stop offset="0" stop-color="#95ffff"/><stop offset=".14" stop-color="#70eaef"/><stop offset=".44" stop-color="#15b6c8"/><stop offset=".5" stop-color="#00aac0"/><stop offset=".62" stop-color="#00b3bc"/><stop offset=".82" stop-color="#00ccb2"/><stop offset=".94" stop-color="#00dfab"/></linearGradient><linearGradient id="linear-gradient-22" x1="191.52" y1="49.94" x2="191.52" y2="47.18" gradientTransform="translate(0 72) scale(1 -1)" gradientUnits="userSpaceOnUse"><stop offset="0" stop-color="#95ffff"/><stop offset=".14" stop-color="#70eaef"/><stop offset=".44" stop-color="#15b6c8"/><stop offset=".5" stop-color="#00aac0"/><stop offset=".62" stop-color="#00b3bc"/><stop offset=".82" stop-color="#00ccb2"/><stop offset=".94" stop-color="#00dfab"/></linearGradient><linearGradient id="linear-gradient-23" x1="191.51" y1="66.39" x2="191.51" y2="52.7" gradientTransform="translate(0 72) scale(1 -1)" gradientUnits="userSpaceOnUse"><stop offset="0" stop-color="#95ffff"/><stop offset=".14" stop-color="#70eaef"/><stop offset=".44" stop-color="#15b6c8"/><stop offset=".5" stop-color="#00aac0"/><stop offset=".62" stop-color="#00b3bc"/><stop offset=".82" stop-color="#00ccb2"/><stop offset=".94" stop-color="#00dfab"/></linearGradient><linearGradient id="linear-gradient-24" x1="191.53" y1="47.33" x2="191.53" y2="43.59" gradientTransform="translate(0 72) scale(1 -1)" gradientUnits="userSpaceOnUse"><stop offset="0" stop-color="#95ffff"/><stop offset=".14" stop-color="#70eaef"/><stop offset=".44" stop-color="#15b6c8"/><stop offset=".5" stop-color="#00aac0"/><stop offset=".62" stop-color="#00b3bc"/><stop offset=".82" stop-color="#00ccb2"/><stop offset=".94" stop-color="#00dfab"/></linearGradient><linearGradient id="linear-gradient-25" x1="191.52" y1="48.66" x2="191.52" y2="45.58" gradientTransform="translate(0 72) scale(1 -1)" gradientUnits="userSpaceOnUse"><stop offset="0" stop-color="#95ffff"/><stop offset=".14" stop-color="#70eaef"/><stop offset=".44" stop-color="#15b6c8"/><stop offset=".5" stop-color="#00aac0"/><stop offset=".62" stop-color="#00b3bc"/><stop offset=".82" stop-color="#00ccb2"/><stop offset=".94" stop-color="#00dfab"/></linearGradient><linearGradient id="linear-gradient-26" x1="191.52" y1="51.29" x2="191.52" y2="48.57" gradientTransform="translate(0 72) scale(1 -1)" gradientUnits="userSpaceOnUse"><stop offset="0" stop-color="#95ffff"/><stop offset=".14" stop-color="#70eaef"/><stop offset=".44" stop-color="#15b6c8"/><stop offset=".5" stop-color="#00aac0"/><stop offset=".62" stop-color="#00b3bc"/><stop offset=".82" stop-color="#00ccb2"/><stop offset=".94" stop-color="#00dfab"/></linearGradient><linearGradient id="linear-gradient-27" x1="191.52" y1="45.72" x2="191.52" y2="42.48" gradientTransform="translate(0 72) scale(1 -1)" gradientUnits="userSpaceOnUse"><stop offset="0" stop-color="#95ffff"/><stop offset=".14" stop-color="#70eaef"/><stop offset=".44" stop-color="#15b6c8"/><stop offset=".5" stop-color="#00aac0"/><stop offset=".62" stop-color="#00b3bc"/><stop offset=".82" stop-color="#00ccb2"/><stop offset=".94" stop-color="#00dfab"/></linearGradient><linearGradient id="linear-gradient-28" x1="191.52" y1="54.01" x2="191.52" y2="51.82" gradientTransform="translate(0 72) scale(1 -1)" gradientUnits="userSpaceOnUse"><stop offset="0" stop-color="#95ffff"/><stop offset=".14" stop-color="#70eaef"/><stop offset=".44" stop-color="#15b6c8"/><stop offset=".5" stop-color="#00aac0"/><stop offset=".62" stop-color="#00b3bc"/><stop offset=".82" stop-color="#00ccb2"/><stop offset=".94" stop-color="#00dfab"/></linearGradient><linearGradient id="linear-gradient-29" x1="191.52" y1="52.8" x2="191.52" y2="50.08" gradientTransform="translate(0 72) scale(1 -1)" gradientUnits="userSpaceOnUse"><stop offset="0" stop-color="#95ffff"/><stop offset=".14" stop-color="#70eaef"/><stop offset=".44" stop-color="#15b6c8"/><stop offset=".5" stop-color="#00aac0"/><stop offset=".62" stop-color="#00b3bc"/><stop offset=".82" stop-color="#00ccb2"/><stop offset=".94" stop-color="#00dfab"/></linearGradient><linearGradient id="linear-gradient-30" x1="178.32" y1="49.92" x2="178.32" y2="47.5" gradientTransform="translate(0 72) scale(1 -1)" gradientUnits="userSpaceOnUse"><stop offset="0" stop-color="#95ffff"/><stop offset=".14" stop-color="#70eaef"/><stop offset=".44" stop-color="#15b6c8"/><stop offset=".5" stop-color="#00aac0"/><stop offset=".62" stop-color="#00b3bc"/><stop offset=".82" stop-color="#00ccb2"/><stop offset=".94" stop-color="#00dfab"/></linearGradient><linearGradient id="linear-gradient-31" x1="170.45" y1="49.94" x2="170.45" y2="47.23" gradientTransform="translate(0 72) scale(1 -1)" gradientUnits="userSpaceOnUse"><stop offset="0" stop-color="#95ffff"/><stop offset=".14" stop-color="#70eaef"/><stop offset=".44" stop-color="#15b6c8"/><stop offset=".5" stop-color="#00aac0"/><stop offset=".62" stop-color="#00b3bc"/><stop offset=".82" stop-color="#00ccb2"/><stop offset=".94" stop-color="#00dfab"/></linearGradient><linearGradient id="linear-gradient-32" x1="174.38" y1="52.8" x2="174.38" y2="50.11" gradientTransform="translate(0 72) scale(1 -1)" gradientUnits="userSpaceOnUse"><stop offset="0" stop-color="#95ffff"/><stop offset=".14" stop-color="#70eaef"/><stop offset=".44" stop-color="#15b6c8"/><stop offset=".5" stop-color="#00aac0"/><stop offset=".62" stop-color="#00b3bc"/><stop offset=".82" stop-color="#00ccb2"/><stop offset=".94" stop-color="#00dfab"/></linearGradient><linearGradient id="linear-gradient-33" x1="170.44" y1="48.66" x2="170.44" y2="45.63" gradientTransform="translate(0 72) scale(1 -1)" gradientUnits="userSpaceOnUse"><stop offset="0" stop-color="#95ffff"/><stop offset=".14" stop-color="#70eaef"/><stop offset=".44" stop-color="#15b6c8"/><stop offset=".5" stop-color="#00aac0"/><stop offset=".62" stop-color="#00b3bc"/><stop offset=".82" stop-color="#00ccb2"/><stop offset=".94" stop-color="#00dfab"/></linearGradient><linearGradient id="linear-gradient-34" x1="178.32" y1="51.28" x2="178.32" y2="48.81" gradientTransform="translate(0 72) scale(1 -1)" gradientUnits="userSpaceOnUse"><stop offset="0" stop-color="#95ffff"/><stop offset=".14" stop-color="#70eaef"/><stop offset=".44" stop-color="#15b6c8"/><stop offset=".5" stop-color="#00aac0"/><stop offset=".62" stop-color="#00b3bc"/><stop offset=".82" stop-color="#00ccb2"/><stop offset=".94" stop-color="#00dfab"/></linearGradient><linearGradient id="linear-gradient-35" x1="170.43" y1="51.29" x2="170.43" y2="48.61" gradientTransform="translate(0 72) scale(1 -1)" gradientUnits="userSpaceOnUse"><stop offset="0" stop-color="#95ffff"/><stop offset=".14" stop-color="#70eaef"/><stop offset=".44" stop-color="#15b6c8"/><stop offset=".5" stop-color="#00aac0"/><stop offset=".62" stop-color="#00b3bc"/><stop offset=".82" stop-color="#00ccb2"/><stop offset=".94" stop-color="#00dfab"/></linearGradient><linearGradient id="linear-gradient-36" x1="170.44" y1="47.33" x2="170.44" y2="43.65" gradientTransform="translate(0 72) scale(1 -1)" gradientUnits="userSpaceOnUse"><stop offset="0" stop-color="#95ffff"/><stop offset=".14" stop-color="#70eaef"/><stop offset=".44" stop-color="#15b6c8"/><stop offset=".5" stop-color="#00aac0"/><stop offset=".62" stop-color="#00b3bc"/><stop offset=".82" stop-color="#00ccb2"/><stop offset=".94" stop-color="#00dfab"/></linearGradient><linearGradient id="linear-gradient-37" x1="174.38" y1="66.39" x2="174.38" y2="52.67" gradientTransform="translate(0 72) scale(1 -1)" gradientUnits="userSpaceOnUse"><stop offset="0" stop-color="#95ffff"/><stop offset=".14" stop-color="#70eaef"/><stop offset=".44" stop-color="#15b6c8"/><stop offset=".5" stop-color="#00aac0"/><stop offset=".62" stop-color="#00b3bc"/><stop offset=".82" stop-color="#00ccb2"/><stop offset=".94" stop-color="#00dfab"/></linearGradient><linearGradient id="linear-gradient-38" x1="170.45" y1="45.71" x2="170.45" y2="42.48" gradientTransform="translate(0 72) scale(1 -1)" gradientUnits="userSpaceOnUse"><stop offset="0" stop-color="#95ffff"/><stop offset=".14" stop-color="#70eaef"/><stop offset=".44" stop-color="#15b6c8"/><stop offset=".5" stop-color="#00aac0"/><stop offset=".62" stop-color="#00b3bc"/><stop offset=".82" stop-color="#00ccb2"/><stop offset=".94" stop-color="#00dfab"/></linearGradient><linearGradient id="linear-gradient-39" x1="178.32" y1="47.32" x2="178.32" y2="43.97" gradientTransform="translate(0 72) scale(1 -1)" gradientUnits="userSpaceOnUse"><stop offset="0" stop-color="#95ffff"/><stop offset=".14" stop-color="#70eaef"/><stop offset=".44" stop-color="#15b6c8"/><stop offset=".5" stop-color="#00aac0"/><stop offset=".62" stop-color="#00b3bc"/><stop offset=".82" stop-color="#00ccb2"/><stop offset=".94" stop-color="#00dfab"/></linearGradient><linearGradient id="linear-gradient-40" x1="178.32" y1="45.71" x2="178.32" y2="42.48" gradientTransform="translate(0 72) scale(1 -1)" gradientUnits="userSpaceOnUse"><stop offset="0" stop-color="#95ffff"/><stop offset=".14" stop-color="#70eaef"/><stop offset=".44" stop-color="#15b6c8"/><stop offset=".5" stop-color="#00aac0"/><stop offset=".62" stop-color="#00b3bc"/><stop offset=".82" stop-color="#00ccb2"/><stop offset=".94" stop-color="#00dfab"/></linearGradient><linearGradient id="linear-gradient-41" x1="178.32" y1="48.65" x2="178.32" y2="45.89" gradientTransform="translate(0 72) scale(1 -1)" gradientUnits="userSpaceOnUse"><stop offset="0" stop-color="#95ffff"/><stop offset=".14" stop-color="#70eaef"/><stop offset=".44" stop-color="#15b6c8"/><stop offset=".5" stop-color="#00aac0"/><stop offset=".62" stop-color="#00b3bc"/><stop offset=".82" stop-color="#00ccb2"/><stop offset=".94" stop-color="#00dfab"/></linearGradient><linearGradient id="linear-gradient-42" x1="174.43" y1="54" x2="174.43" y2="51.77" gradientTransform="translate(0 72) scale(1 -1)" gradientUnits="userSpaceOnUse"><stop offset="0" stop-color="#95ffff"/><stop offset=".14" stop-color="#70eaef"/><stop offset=".44" stop-color="#15b6c8"/><stop offset=".5" stop-color="#00aac0"/><stop offset=".62" stop-color="#00b3bc"/><stop offset=".82" stop-color="#00ccb2"/><stop offset=".94" stop-color="#00dfab"/></linearGradient></defs><path class="cls-45" d="m136.1,2.06c-1.17.02-2.28.34-3.23.89-.95-.55-2.05-.88-3.22-.89h-9.6c-1.17.02-2.27.34-3.22.89-.95-.55-2.05-.88-3.22-.9h-9.51c-3.69,0-6.69,3-6.69,6.68v2.23l-2.69,1.58V2.05H30.47c-1.21,0-2.35.32-3.33.89-.95-.55-2.05-.87-3.22-.89H2l5.73,9.35v12.73l-5.73,9.35h21.82c1.21,0,2.35-.33,3.33-.9.95.55,2.05.87,3.22.89h9.5c1.21,0,2.34-.32,3.32-.89.96.55,2.06.88,3.23.89h18.85v6.1l10.33-6.09,122.39-.02V2l-61.9.04v.02Z"/><polygon class="cls-44" points="85.54 6.19 85.54 29.36 99.91 29.36 99.91 14.31 94.96 17.21 94.96 24.12 90.49 24.12 90.49 6.19 85.54 6.19"/><path class="cls-35" d="m106.55,23.22v-10.89c0-.51.4-.92.89-.92h2.69c.49,0,.89.41.89.92v10.89c0,.51-.4.92-.89.92h-2.69c-.49,0-.89-.41-.89-.92Zm-4.94-14.47v18.06c0,1.39,1.09,2.53,2.44,2.55h9.45c1.36,0,2.47-1.14,2.47-2.55V8.75c0-1.39-1.09-2.53-2.44-2.55h-9.44c-1.37,0-2.48,1.14-2.48,2.55Z"/><path class="cls-44" d="m69.49,32.28l4.95-2.92V11.37h3.58c.49,0,.89.41.89.92v17.07h4.94V8.74c0-1.39-1.09-2.53-2.44-2.55h-11.92v26.08h0Z"/><path class="cls-44" d="m62.86,6.19v17.02c0,.51-.4.92-.89.92h-2.67c-.49,0-.89-.41-.89-.92V6.19h-4.95v17.02c0,.51-.4.92-.89.92h-2.67c-.49,0-.89-.41-.89-.92V6.19h-4.95v20.61c0,1.39,1.09,2.53,2.44,2.55h18.83c1.36,0,2.48-1.14,2.48-2.55V6.19h-4.95Z"/><path class="cls-35" d="m122.61,17.97v-5.64c0-.51.4-.92.89-.92h2.69c.49,0,.89.41.89.92v5.64h-4.47Zm-2.51-11.78c-1.35.02-2.44,1.16-2.44,2.55v20.62h4.95v-6.16h4.46v6.16h4.95V8.74c0-1.39-1.09-2.53-2.44-2.55,0,0-9.48,0-9.48,0Z"/><path class="cls-35" d="m16.89,24.14v-12.73h3.58c.49,0,.89.41.89.92v10.89c0,.51-.4.92-.89.92,0,0-3.58,0-3.58,0ZM9.45,6.2l2.49,4.07v15.03l-2.49,4.07h14.38c1.36,0,2.47-1.14,2.47-2.55V8.76c0-1.39-1.09-2.53-2.44-2.55h-14.41,0Z"/><path class="cls-35" d="m32.94,23.22v-10.89c0-.51.4-.92.89-.92h2.68c.49,0,.89.41.89.92v10.89c0,.51-.4.92-.89.92h-2.68c-.49,0-.89-.41-.89-.92Zm-4.94-14.47v18.06c0,1.39,1.09,2.53,2.44,2.55h9.44c1.36,0,2.47-1.14,2.47-2.55V8.75c0-1.39-1.09-2.53-2.44-2.55h-9.44c-1.36,0-2.47,1.14-2.47,2.55Z"/><path class="cls-35" d="m139.65,24.11c-.49,0-.89-.41-.89-.92v-10.89c0-.51.4-.92.89-.92h3.58v12.73s-3.58,0-3.58,0Zm-3.39-17.94c-1.35.02-2.44,1.16-2.44,2.55v18.06c0,1.41,1.11,2.55,2.47,2.55h14.38l-2.49-4.11v-15l2.49-4.06h-14.41Z"/><path class="cls-1" d="m155.97,21.02c1.2-.91,3.63-.91,4.83,0,1.41,1.07,4.19,1.07,5.6,0,.02-.02.05-.03.07-.05v-1.23c-.16.07-.32.15-.45.23-1.2.75-3.63.75-4.83,0-1.41-.89-4.19-.89-5.6,0-.56.35-1.39.54-2.23.56v1.28c.98-.03,1.95-.3,2.62-.8h-.01Z"/><path class="cls-37" d="m166.4,25.12s.05-.05.07-.07v-.9c-.16.11-.32.24-.45.38-1.18,1.2-3.58,1.21-4.79.03v.96c1.49,1.19,3.89,1.05,5.18-.4h-.01Z"/><path class="cls-38" d="m155.97,22.41c.65-.57,1.65-.83,2.63-.78v-.04l.92-.66c-1.37-.27-2.97-.04-3.93.69-.56.42-1.39.65-2.23.67v1.04c.98-.03,1.95-.34,2.62-.93h-.01Z"/><path class="cls-36" d="m161.22,21.65v1.07c1.49.93,3.89.83,5.18-.31.02-.02.05-.04.07-.05v-1.01c-.16.08-.32.18-.45.28-1.18.9-3.58.9-4.79.03h-.01Z"/><path class="cls-42" d="m155.58,19.54c1.41-.89,4.19-.89,5.6,0,1.2.75,3.63.75,4.83,0,.12-.08.26-.15.41-.21l-.92-.64c-1.28.33-3.27.27-4.32-.17-1.41-.59-4.19-.59-5.6,0-.4.16-.93.27-1.5.33l-.73.51v.74c.85-.02,1.67-.21,2.23-.56Z"/><path class="cls-43" d="m161.22,23.14v.73c1.21,1.17,3.61,1.16,4.79-.03.14-.14.29-.27.45-.38v-.68c-.16.1-.32.2-.45.33-1.18,1.05-3.58,1.05-4.79.03Z"/><path class="cls-41" d="m155.97,26.8c.65-.92,1.65-1.34,2.63-1.27v-.7c-1.12-.06-2.26.34-3.01,1.2-.56.63-1.39.97-2.23,1.01v1.26c.98-.06,1.95-.56,2.62-1.5h-.01Z"/><path class="cls-39" d="m154.59,18.5c.38-.06.72-.15.99-.26,1.41-.59,4.19-.59,5.6,0,.96.4,2.73.48,4,.23l-.96-.67,2.24-1.66V6.16h-5.25v7.69l-1.33.99-1.3-.99v-7.69h-5.25v9.98l2.24,1.66-1,.7h.02Z"/><path class="cls-40" d="m155.58,27.93c-.56.79-1.39,1.22-2.23,1.27v.15h5.25v-2.92c-1.12-.07-2.26.43-3.01,1.5h-.01Z"/><path class="cls-18" d="m155.58,23.84c.75-.76,1.9-1.12,3.01-1.06v-.59c-1.12-.05-2.26.26-3.01.93-.56.49-1.39.75-2.23.79v.84c.85-.04,1.67-.34,2.23-.9h0Z"/><path class="cls-15" d="m166.01,27.93c-1.18,1.69-3.58,1.7-4.79.05v1.37h5.25v-1.96c-.16.16-.32.34-.45.53h-.01Z"/><path class="cls-16" d="m155.97,25.12c.65-.73,1.65-1.07,2.63-1.01v-.65c-1.12-.05-2.26.3-3.01,1.06-.56.56-1.39.86-2.23.9v.89c.98-.04,1.95-.44,2.62-1.2h-.01Z"/><path class="cls-17" d="m166.4,26.8s.05-.06.07-.09v-1.11c-.16.13-.32.27-.45.43-1.18,1.34-3.58,1.36-4.79.04v1.24c1.49,1.49,3.89,1.32,5.18-.5h-.01Z"/><path class="cls-26" d="m186.87,19.98c-1.12.7-3.32.75-4.58.14v1.28c1.5.68,3.74.55,4.96-.37.09-.07.18-.13.28-.18v-1.18c-.24.09-.47.2-.67.32h0Z"/><path class="cls-22" d="m187.26,25.12c.09-.1.18-.19.28-.27v-.83c-.24.14-.47.32-.67.52-1.12,1.13-3.32,1.2-4.58.22v.93c1.5,1.02,3.74.83,4.96-.56h0Z"/><path class="cls-20" d="m186.87,21.62c-1.12.85-3.32.9-4.58.17v1.05c1.5.79,3.74.65,4.96-.43.09-.08.18-.15.28-.21v-.95c-.24.11-.47.23-.67.38h0Z"/><path class="cls-19" d="m186.87,23.84c.2-.2.42-.37.67-.52v-.66c-.24.13-.47.27-.67.45-1.12.99-3.32,1.05-4.58.19v.76c1.26.98,3.46.91,4.58-.22Z"/><path class="cls-25" d="m186.87,18.24c.2-.08.43-.15.67-.21V6.17h-5.25v12.17c1.26.4,3.46.37,4.58-.09h0Z"/><path class="cls-21" d="m186.87,27.93c-1.12,1.59-3.32,1.7-4.58.31v1.11h5.25v-2.15c-.24.2-.47.44-.67.73Z"/><path class="cls-28" d="m182.29,18.62v1.06c1.26.61,3.46.57,4.58-.14.2-.12.43-.23.67-.32v-.91c-.24.06-.47.13-.67.21-1.12.47-3.32.5-4.58.09h0Z"/><path class="cls-24" d="m187.26,26.8c.09-.13.18-.24.28-.35v-1c-.24.16-.47.35-.67.58-1.12,1.27-3.32,1.35-4.58.25v1.22c1.5,1.27,3.74,1.04,4.96-.7h0Z"/><path class="cls-27" d="m192.47,23.11c-.88-.78-2.29-1.07-3.57-.88v.6c1.28-.22,2.69.11,3.57,1,.43.44,1.03.71,1.67.84v-.84c-.64-.11-1.24-.35-1.67-.73h0Z"/><path class="cls-23" d="m192.47,18.24c.43.18,1.03.3,1.67.35V6.17h-5.25v11.66c1.28-.09,2.69.05,3.57.42h0Z"/><path class="cls-30" d="m192.09,26.8c.54.77,1.27,1.24,2.06,1.42v-1.26c-.64-.14-1.24-.45-1.67-.94-.88-1-2.29-1.38-3.57-1.13v.73c1.14-.31,2.42.08,3.19,1.17h0Z"/><path class="cls-14" d="m192.47,24.53c-.88-.89-2.29-1.22-3.57-1v.66c1.14-.25,2.42.06,3.19.93.54.61,1.27.99,2.06,1.13v-.89c-.64-.12-1.24-.4-1.67-.84h0Z"/><path class="cls-31" d="m192.47,21.62c-.88-.67-2.29-.92-3.57-.75v.81c1.14-.2,2.42.04,3.19.72.54.48,1.27.77,2.06.88v-1.04c-.64-.09-1.24-.3-1.67-.63h0Z"/><path class="cls-29" d="m192.47,27.93c-.88-1.26-2.29-1.73-3.57-1.42v2.84h5.25v-.24c-.64-.17-1.24-.56-1.67-1.18h0Z"/><path class="cls-13" d="m192.47,18.53c-.88-.37-2.29-.51-3.57-.41v.81c1.28-.14,2.69.07,3.57.63.43.27,1.03.45,1.67.52v-1.19c-.64-.05-1.24-.16-1.67-.35h0Z"/><path class="cls-4" d="m192.47,19.98c-.88-.56-2.29-.77-3.57-.63v1.05c1.14-.17,2.42.04,3.19.62.54.41,1.27.66,2.06.75v-1.28c-.64-.08-1.24-.25-1.67-.52h0Z"/><path class="cls-6" d="m180.94,23.1v-.63c-1.47-.55-3.39-.33-4.5.64-.21.19-.47.34-.75.46v.8c.28-.14.54-.31.75-.53,1.1-1.11,3.03-1.36,4.5-.73h0Z"/><path class="cls-7" d="m171.61,23.84c.38.39.9.65,1.46.79v-.83c-.56-.12-1.07-.35-1.46-.69-.93-.82-2.45-1.1-3.79-.84v.61c1.33-.3,2.86.02,3.79.96Z"/><path class="cls-5" d="m176.44,19.98c-1.2.75-3.63.75-4.83,0-.93-.59-2.45-.79-3.79-.6v1.06c1.19-.23,2.59-.03,3.4.59.49.37,1.14.61,1.84.72v-.16l1.3-.93,1.32.92c.43-.13.82-.32,1.14-.56.99-.75,2.83-.88,4.11-.39v-1.11c-1.47-.39-3.39-.24-4.5.46h0Z"/><path class="cls-3" d="m171.23,25.12c.49.55,1.14.92,1.84,1.09v-.89c-.56-.14-1.07-.4-1.46-.79-.93-.94-2.45-1.26-3.79-.96v.67c1.19-.34,2.59-.05,3.4.88h.01Z"/><path class="cls-10" d="m176.83,22.41c.99-.87,2.83-1.02,4.11-.45v-.88c-1.47-.47-3.39-.29-4.5.55-.21.16-.47.29-.75.4v1.04c.43-.15.82-.37,1.13-.65h0Z"/><path class="cls-12" d="m167.82,20.91v.82c1.19-.27,2.59-.04,3.4.68.49.43,1.14.71,1.84.84v-1.04c-.56-.1-1.07-.3-1.46-.59-.93-.71-2.45-.94-3.79-.72h.01Z"/><path class="cls-8" d="m171.23,26.8c.49.7,1.14,1.15,1.84,1.37v-1.25c-.56-.16-1.07-.45-1.46-.89-.93-1.06-2.45-1.42-3.79-1.08v.75c1.19-.43,2.59-.06,3.4,1.1h.01Z"/><path class="cls-11" d="m169.98,17.86c.62.07,1.19.2,1.63.38,1.2.5,3.63.5,4.83,0,.59-.24,1.41-.39,2.26-.43h0l2.24-1.66V6.17h-5.25v7.69l-1.33.99-1.3-.99v-7.69h-5.25v9.98l2.24,1.66-.08.05h0Z"/><path class="cls-2" d="m171.61,27.93c-.93-1.33-2.45-1.78-3.79-1.36v2.78h5.25v-.31c-.56-.2-1.07-.57-1.46-1.11Z"/><path class="cls-9" d="m176.83,26.8c.99-1.41,2.83-1.65,4.11-.73v-.87c-1.47-.7-3.4-.42-4.5.83-.21.24-.47.44-.75.6v1.23c.43-.25.82-.6,1.13-1.05h0Z"/><path class="cls-33" d="m176.44,27.93c-.21.31-.47.56-.75.75v.67h5.25v-2.46c-1.47-.88-3.4-.53-4.5,1.04Z"/><path class="cls-34" d="m176.83,25.12c.99-1.12,2.83-1.32,4.11-.58v-.75c-1.47-.62-3.4-.38-4.5.73-.21.22-.47.39-.75.53v.9c.43-.2.82-.48,1.13-.84h0Z"/><path class="cls-32" d="m176.44,18.53c-1.2.5-3.63.5-4.83,0-.52-.22-1.23-.36-1.99-.41l-1.11.77c1.14-.05,2.32.17,3.1.66,1.2.75,3.63.75,4.83,0,.96-.61,2.56-.8,3.92-.58l-1.26-.88c-1,0-1.98.16-2.66.44Z"/></svg>